<svg xmlns="http://www.w3.org/2000/svg" xmlns:xlink="http://www.w3.org/1999/xlink" xml:space="preserve" version="1.1" style="shape-rendering:geometricPrecision;text-rendering:geometricPrecision;image-rendering:optimizeQuality;" viewBox="0 0 317080 317080" x="0px" y="0px" fill-rule="evenodd" clip-rule="evenodd"><g><path class="fil0" d="M5809 0l305462 0 5809 0 0 5809 0 305462 0 5809 -5809 0 -305462 0 -5809 0 0 -5809 0 -305462 0 -5809 5809 0zm34076 135342l76365 -76366 4107 -4107 4107 4107 34076 34076 34076 -34076 4107 -4107 4107 4107 76365 76366 4108 4107 -4108 4107 -114548 114548 -4107 4107 -4107 -4107 -114548 -114548 -4107 -4107 4107 -4107zm80472 -64045l-68151 68152 106334 106334 106334 -106334 -68151 -68152 -34076 34076 -4107 4107 -4107 -4107 -34076 -34076zm185105 -59679l-293844 0 0 293844 293844 0 0 -293844z"></path></g></svg>