<svg xmlns="http://www.w3.org/2000/svg" xmlns:xlink="http://www.w3.org/1999/xlink" xml:space="preserve" version="1.1" style="shape-rendering:geometricPrecision;text-rendering:geometricPrecision;image-rendering:optimizeQuality;" viewBox="0 0 613636 613636" x="0px" y="0px" fill-rule="evenodd" clip-rule="evenodd"><g><path class="fil0" d="M11242 0l591152 0 11242 0 0 11242 0 591152 0 11242 -11242 0 -591152 0 -11242 0 0 -11242 0 -591152 0 -11242 11242 0zm226337 428901l-70601 70601 -19190 19190 0 -27139 0 -62652 -62652 0 -11242 0 0 -11242 0 -295576 0 -11242 11242 0 443364 0 11242 0 0 11242 0 295576 0 11242 -11242 0 -290921 0zm-67307 35514l54704 -54704 3294 -3294 4654 0 284334 0 0 -273092 -420880 0 0 273092 62652 0 11242 0 0 11242 0 46756zm420880 -441931l-568668 0 0 568668 568668 0 0 -568668z"></path></g></svg>