<svg xmlns="http://www.w3.org/2000/svg" xmlns:xlink="http://www.w3.org/1999/xlink" xml:space="preserve" version="1.1" style="shape-rendering:geometricPrecision;text-rendering:geometricPrecision;image-rendering:optimizeQuality;" viewBox="0 0 132351 132351" x="0px" y="0px" fill-rule="evenodd" clip-rule="evenodd"><g><path class="fil0" d="M2425 0l127502 0 2424 0 0 2425 0 127502 0 2424 -2424 0 -127502 0 -2425 0 0 -2424 0 -127502 0 -2425 2425 0zm67179 66176l57898 57897 0 -88769 -13513 -13513 -44385 44385zm54469 61326l-57897 -57898 -1715 -1714 -14223 -14223 -45389 45388 0 28447 119224 0zm-119224 -35304l43675 -43674 1714 -1715 1714 1715 14224 14223 46099 -46099 1714 -1714 1714 1714 11799 11799 0 -23598 -122653 0 0 87349zm29451 -68291c2870,0 5468,1163 7349,3044 1881,1881 3045,4480 3045,7349 0,2870 -1164,5470 -3045,7351 -1881,1879 -4479,3043 -7349,3043 -2869,0 -5468,-1164 -7349,-3043 -1881,-1881 -3044,-4481 -3044,-7351 0,-2869 1163,-5468 3044,-7349 1881,-1881 4480,-3044 7349,-3044zm3920 6473c-1002,-1002 -2388,-1624 -3920,-1624 -1532,0 -2918,622 -3920,1624 -1004,1004 -1624,2390 -1624,3920 0,1532 620,2918 1624,3922 1002,1002 2388,1622 3920,1622 1532,0 2918,-620 3920,-1622 1004,-1004 1624,-2390 1624,-3922 0,-1530 -620,-2916 -1624,-3920z"></path></g></svg>