<svg xmlns="http://www.w3.org/2000/svg" xmlns:xlink="http://www.w3.org/1999/xlink" xml:space="preserve" version="1.1" style="shape-rendering:geometricPrecision;text-rendering:geometricPrecision;image-rendering:optimizeQuality;" viewBox="0 0 398336 398336" x="0px" y="0px" fill-rule="evenodd" clip-rule="evenodd"><g><path class="fil0" d="M7298 0l383741 0 7297 0 0 7298 0 383741 0 7297 -7297 0 -383741 0 -7298 0 0 -7297 0 -383741 0 -7298 7298 0zm184573 343071l0 -136605 -136606 0 0 -14595 136606 0 0 -136606 14595 0 0 136606 136605 0 0 14595 -136605 0 0 136605 -14595 0zm191870 -328476l-369146 0 0 369146 369146 0 0 -369146z"></path></g></svg>